<svg width="23" height="23" viewBox="0 0 23 23" fill="none" xmlns="http://www.w3.org/2000/svg">
<path d="M11.5 23C8.45001 23 5.52494 21.7884 3.36827 19.6317C1.2116 17.4751 0 14.55 0 11.5C0 8.45001 1.2116 5.52494 3.36827 3.36827C5.52494 1.2116 8.45001 0 11.5 0C14.55 0 17.4751 1.2116 19.6317 3.36827C21.7884 5.52494 23 8.45001 23 11.5C23 14.55 21.7884 17.4751 19.6317 19.6317C17.4751 21.7884 14.55 23 11.5 23ZM13.8 8.05C13.8 8.372 13.5585 8.97 13.317 9.2L11.5 11.017C10.8445 11.684 10.35 12.857 10.35 13.8V14.95H12.65V13.8C12.65 13.4665 12.8915 12.88 13.133 12.65L14.95 10.833C15.6055 10.166 16.1 8.993 16.1 8.05C16.1 6.83 15.6154 5.65998 14.7527 4.79731C13.89 3.93464 12.72 3.45 11.5 3.45C10.28 3.45 9.10998 3.93464 8.24731 4.79731C7.38464 5.65998 6.9 6.83 6.9 8.05H9.2C9.2 7.44 9.44232 6.85499 9.87365 6.42365C10.305 5.99232 10.89 5.75 11.5 5.75C12.11 5.75 12.695 5.99232 13.1263 6.42365C13.5577 6.85499 13.8 7.44 13.8 8.05ZM10.35 17.25V19.55H12.65V17.25H10.35Z" fill="#CC2222"/>
</svg>
