<svg width="23" height="23" viewBox="0 0 23 23" fill="none" xmlns="http://www.w3.org/2000/svg">
<path d="M22.0581 7.04377C21.4822 5.66922 20.6444 4.41986 19.5913 3.36531C18.5413 2.30892 17.2942 1.46903 15.9205 0.893326C14.5133 0.300696 13.0014 -0.00308639 11.4745 2.364e-05H11.4232C9.87019 0.00772452 8.36852 0.31576 6.95413 0.921563C5.59228 1.50317 4.3568 2.34455 3.31674 3.39868C2.27386 4.45086 1.44561 5.69586 0.878128 7.0643C0.289049 8.48733 -0.00943952 10.0138 0.000227514 11.5539C0.0079284 13.3354 0.434044 15.104 1.2298 16.6853V20.5871C1.2298 21.2391 1.7586 21.7679 2.40804 21.7679H6.30469C7.89331 22.5695 9.64638 22.9913 11.4258 23H11.4797C13.0147 23 14.501 22.7022 15.9026 22.1195C17.2692 21.5507 18.5118 20.7206 19.5605 19.6758C20.6181 18.6259 21.4498 17.3989 22.0325 16.0307C22.6357 14.6137 22.9437 13.1069 22.9514 11.5514C22.9566 9.98807 22.6537 8.471 22.0581 7.04377ZM6.35089 12.7322C5.67321 12.7322 5.12132 12.1803 5.12132 11.5C5.12132 10.8198 5.67321 10.2679 6.35089 10.2679C7.02857 10.2679 7.58046 10.8198 7.58046 11.5C7.58046 12.1803 7.03114 12.7322 6.35089 12.7322ZM11.4745 12.7322C10.7969 12.7322 10.245 12.1803 10.245 11.5C10.245 10.8198 10.7969 10.2679 11.4745 10.2679C12.1522 10.2679 12.7041 10.8198 12.7041 11.5C12.7041 12.1803 12.1522 12.7322 11.4745 12.7322ZM16.5982 12.7322C15.9205 12.7322 15.3686 12.1803 15.3686 11.5C15.3686 10.8198 15.9205 10.2679 16.5982 10.2679C17.2759 10.2679 17.8278 10.8198 17.8278 11.5C17.8278 12.1803 17.2759 12.7322 16.5982 12.7322Z" fill="#CC2222"/>
</svg>
