<svg width="24" height="23" viewBox="0 0 24 23" fill="none" xmlns="http://www.w3.org/2000/svg">
<path d="M8.395 23L7.935 19.32C7.68583 19.2242 7.45085 19.1092 7.23005 18.975C7.00925 18.8408 6.79382 18.6971 6.58375 18.5437L3.1625 19.9812L0 14.5187L2.96125 12.2762C2.94208 12.1421 2.9325 12.0125 2.9325 11.8875V11.1124C2.9325 10.9875 2.94208 10.8579 2.96125 10.7237L0 8.48125L3.1625 3.01875L6.58375 4.45625C6.79458 4.30292 7.015 4.15917 7.245 4.025C7.475 3.89083 7.705 3.77583 7.935 3.68L8.395 0H14.72L15.18 3.68C15.4292 3.77583 15.6641 3.89083 15.8849 4.025C16.1057 4.15917 16.3212 4.30292 16.5312 4.45625L19.9525 3.01875L23.115 8.48125L20.1537 10.7237C20.1729 10.8579 20.1825 10.9875 20.1825 11.1124V11.8875C20.1825 12.0125 20.1633 12.1421 20.125 12.2762L23.0862 14.5187L19.9237 19.9812L16.5312 18.5437C16.3204 18.6971 16.1 18.8408 15.87 18.975C15.64 19.1092 15.41 19.2242 15.18 19.32L14.72 23H8.395ZM11.615 15.525C12.7267 15.525 13.6754 15.1321 14.4612 14.3463C15.2471 13.5604 15.64 12.6117 15.64 11.5C15.64 10.3883 15.2471 9.43958 14.4612 8.65375C13.6754 7.86792 12.7267 7.475 11.615 7.475C10.4842 7.475 9.53043 7.86792 8.7538 8.65375C7.97717 9.43958 7.58923 10.3883 7.59 11.5C7.59 12.6117 7.97793 13.5604 8.7538 14.3463C9.52967 15.1321 10.4834 15.525 11.615 15.525Z" fill="#CC2222"/>
</svg>
